<?xml version="1.0" encoding="iso-8859-1"?>
<!-- Generator: Adobe Illustrator 19.0.0, SVG Export Plug-In . SVG Version: 6.00 Build 0)  -->
<svg version="1.1" id="Layer_1" xmlns="http://www.w3.org/2000/svg" xmlns:xlink="http://www.w3.org/1999/xlink" x="0px" y="0px"
	 viewBox="0 0 511.997 511.997" style="enable-background:new 0 0 511.997 511.997;" xml:space="preserve">
<rect x="34.124" y="255.341" style="fill:#212121;" width="443.748" height="136.538"/>
<path style="fill:#3E2723;" d="M51.191,434.547H25.591v-34.134h34.134L51.191,434.547z M460.805,434.547h25.601v-34.134h-34.134
	L460.805,434.547z"/>
<g>
	<path style="fill:#9CCC65;" d="M176.354,122.31c-47.72,6.904-99.127,9.967-152.777,8.738c-6.673-0.154-11,6.972-7.603,12.715
		c22.307,37.719,35.218,81.641,35.218,128.644v23.467h125.163V122.31z"/>
	<path style="fill:#9CCC65;" d="M335.643,122.31c47.72,6.904,99.127,9.967,152.777,8.738c6.673-0.154,11,6.972,7.603,12.715
		c-22.307,37.719-35.218,81.641-35.218,128.644v23.467H335.643V122.31z"/>
</g>
<path style="fill:#8BC34A;" d="M349.868,280.942h-187.74c9.797-65.581,10.872-130.206,1.707-193.696
	c-0.802-5.59,3.832-10.326,9.438-9.634c54.24,6.707,109.444,6.451,165.527-0.102c5.572-0.649,10.189,4.113,9.387,9.669
	C338.168,156.624,339.474,220.874,349.868,280.942z"/>
<path style="fill:#7CB342;" d="M452.271,408.946H59.725c-4.711,0-8.534-3.823-8.534-8.534v-59.735c0-4.711,3.823-8.534,8.534-8.534
	h392.546c4.711,0,8.534,3.823,8.534,8.534v59.735C460.805,405.132,456.982,408.946,452.271,408.946z"/>
<path style="fill:#8BC34A;" d="M247.465,332.144H59.725c-4.711,0-8.534-3.823-8.534-8.534v-42.668h204.807v42.668
	C255.998,328.329,252.175,332.144,247.465,332.144z"/>
<path style="fill:#AED581;" d="M110.927,263.875c-22.443,0-41.798,6.306-59.735,17.067h204.807
	c-17.938-10.761-37.292-17.067-59.735-17.067H110.927z"/>
<path style="fill:#8BC34A;" d="M264.532,332.144h187.74c4.711,0,8.534-3.823,8.534-8.534v-42.668H255.998v42.668
	C255.998,328.329,259.821,332.144,264.532,332.144z"/>
<path style="fill:#AED581;" d="M401.07,263.875c22.443,0,41.798,6.306,59.735,17.067H255.998
	c17.938-10.761,37.292-17.067,59.735-17.067H401.07z"/>
<g>
	<path style="fill:#8BC34A;" d="M42.598,209.985c-12.544-19.533-44.622-9.541-42.497,13.577c0.529,5.777,2.995,10.974,6.742,14.976
		c6.247,6.682,10.215,15.113,10.215,24.261c0,33.332,0,113.147,0,137.656c0,4.711,3.823,8.491,8.534,8.491h17.067
		c4.711,0,8.534-3.823,8.534-8.534V238.274C51.191,230.022,48.247,218.792,42.598,209.985z"/>
	<path style="fill:#8BC34A;" d="M469.398,209.985c12.544-19.533,44.622-9.541,42.497,13.577c-0.529,5.777-2.995,10.974-6.742,14.976
		c-6.247,6.682-10.215,15.113-10.215,24.261c0,33.332,0,113.147,0,137.656c0,4.711-3.823,8.491-8.534,8.491h-17.067
		c-4.711,0-8.534-3.823-8.534-8.534V238.274C460.805,230.022,463.749,218.792,469.398,209.985z"/>
</g>
<g>
</g>
<g>
</g>
<g>
</g>
<g>
</g>
<g>
</g>
<g>
</g>
<g>
</g>
<g>
</g>
<g>
</g>
<g>
</g>
<g>
</g>
<g>
</g>
<g>
</g>
<g>
</g>
<g>
</g>
</svg>
